<mxfile host="app.diagrams.net" agent="Mozilla/5.0 (Windows NT 10.0; Win64; x64) AppleWebKit/537.36 (KHTML, like Gecko) Chrome/130.0.0.0 Safari/537.36" version="24.8.4">
  <diagram name="Page-1" id="IUYabZ9ptcmHv1ihfVYv">
    <mxGraphModel dx="2385" dy="1138" grid="0" gridSize="10" guides="1" tooltips="1" connect="1" arrows="1" fold="1" page="0" pageScale="1" pageWidth="850" pageHeight="1100" math="0" shadow="0">
      <root>
        <mxCell id="0" />
        <mxCell id="1" parent="0" />
        <mxCell id="fC3Y7yyodlsYuvOftsUU-1" value="" style="group" parent="1" vertex="1" connectable="0">
          <mxGeometry x="598" y="154" width="92" height="92" as="geometry" />
        </mxCell>
        <mxCell id="fC3Y7yyodlsYuvOftsUU-2" value="" style="ellipse;whiteSpace=wrap;html=1;aspect=fixed;" parent="fC3Y7yyodlsYuvOftsUU-1" vertex="1">
          <mxGeometry width="92" height="92" as="geometry" />
        </mxCell>
        <mxCell id="fC3Y7yyodlsYuvOftsUU-3" value="Final" style="ellipse;whiteSpace=wrap;html=1;aspect=fixed;" parent="fC3Y7yyodlsYuvOftsUU-1" vertex="1">
          <mxGeometry x="6" y="6" width="80" height="80" as="geometry" />
        </mxCell>
        <mxCell id="fC3Y7yyodlsYuvOftsUU-43" style="edgeStyle=none;curved=1;rounded=0;orthogonalLoop=1;jettySize=auto;html=1;fontSize=12;startSize=8;endSize=8;" parent="1" source="fC3Y7yyodlsYuvOftsUU-6" target="fC3Y7yyodlsYuvOftsUU-35" edge="1">
          <mxGeometry relative="1" as="geometry" />
        </mxCell>
        <mxCell id="fC3Y7yyodlsYuvOftsUU-56" value="&quot;" style="edgeLabel;html=1;align=center;verticalAlign=middle;resizable=0;points=[];fontSize=12;" parent="fC3Y7yyodlsYuvOftsUU-43" vertex="1" connectable="0">
          <mxGeometry x="-0.0316" y="4" relative="1" as="geometry">
            <mxPoint x="182" y="-131" as="offset" />
          </mxGeometry>
        </mxCell>
        <mxCell id="fC3Y7yyodlsYuvOftsUU-44" style="edgeStyle=none;curved=1;rounded=0;orthogonalLoop=1;jettySize=auto;html=1;exitX=1;exitY=0.5;exitDx=0;exitDy=0;entryX=0;entryY=0.5;entryDx=0;entryDy=0;fontSize=12;startSize=8;endSize=8;" parent="1" source="fC3Y7yyodlsYuvOftsUU-6" target="fC3Y7yyodlsYuvOftsUU-37" edge="1">
          <mxGeometry relative="1" as="geometry" />
        </mxCell>
        <mxCell id="fC3Y7yyodlsYuvOftsUU-47" style="edgeStyle=none;curved=1;rounded=0;orthogonalLoop=1;jettySize=auto;html=1;exitX=1;exitY=0.5;exitDx=0;exitDy=0;entryX=0;entryY=0.5;entryDx=0;entryDy=0;fontSize=12;startSize=8;endSize=8;" parent="1" source="fC3Y7yyodlsYuvOftsUU-6" target="fC3Y7yyodlsYuvOftsUU-42" edge="1">
          <mxGeometry relative="1" as="geometry" />
        </mxCell>
        <mxCell id="fC3Y7yyodlsYuvOftsUU-48" style="edgeStyle=none;curved=1;rounded=0;orthogonalLoop=1;jettySize=auto;html=1;exitX=1;exitY=1;exitDx=0;exitDy=0;entryX=0;entryY=0;entryDx=0;entryDy=0;fontSize=12;startSize=8;endSize=8;" parent="1" source="fC3Y7yyodlsYuvOftsUU-6" target="fC3Y7yyodlsYuvOftsUU-36" edge="1">
          <mxGeometry relative="1" as="geometry" />
        </mxCell>
        <mxCell id="fC3Y7yyodlsYuvOftsUU-6" value="Initial" style="ellipse;whiteSpace=wrap;html=1;aspect=fixed;" parent="1" vertex="1">
          <mxGeometry x="-544" y="144" width="92" height="92" as="geometry" />
        </mxCell>
        <mxCell id="fC3Y7yyodlsYuvOftsUU-51" style="edgeStyle=none;curved=1;rounded=0;orthogonalLoop=1;jettySize=auto;html=1;entryX=0;entryY=0.5;entryDx=0;entryDy=0;fontSize=12;startSize=8;endSize=8;" parent="1" source="fC3Y7yyodlsYuvOftsUU-35" target="fC3Y7yyodlsYuvOftsUU-39" edge="1">
          <mxGeometry relative="1" as="geometry">
            <mxPoint x="-170.99999999999523" y="-51" as="targetPoint" />
          </mxGeometry>
        </mxCell>
        <mxCell id="fC3Y7yyodlsYuvOftsUU-35" value="Object" style="ellipse;whiteSpace=wrap;html=1;aspect=fixed;" parent="1" vertex="1">
          <mxGeometry x="-393" y="-94" width="92" height="92" as="geometry" />
        </mxCell>
        <mxCell id="fC3Y7yyodlsYuvOftsUU-49" style="edgeStyle=none;curved=1;rounded=0;orthogonalLoop=1;jettySize=auto;html=1;exitX=1;exitY=0;exitDx=0;exitDy=0;entryX=0;entryY=1;entryDx=0;entryDy=0;fontSize=12;startSize=8;endSize=8;" parent="1" source="N2olu9is8N9awN_sbgdp-4" target="fC3Y7yyodlsYuvOftsUU-2" edge="1">
          <mxGeometry relative="1" as="geometry" />
        </mxCell>
        <mxCell id="N2olu9is8N9awN_sbgdp-6" style="edgeStyle=orthogonalEdgeStyle;rounded=0;orthogonalLoop=1;jettySize=auto;html=1;entryX=0;entryY=0.5;entryDx=0;entryDy=0;" edge="1" parent="1" source="fC3Y7yyodlsYuvOftsUU-36" target="N2olu9is8N9awN_sbgdp-4">
          <mxGeometry relative="1" as="geometry" />
        </mxCell>
        <mxCell id="fC3Y7yyodlsYuvOftsUU-36" value="List" style="ellipse;whiteSpace=wrap;html=1;aspect=fixed;" parent="1" vertex="1">
          <mxGeometry x="-109" y="471" width="92" height="92" as="geometry" />
        </mxCell>
        <mxCell id="fC3Y7yyodlsYuvOftsUU-45" style="edgeStyle=none;curved=1;rounded=0;orthogonalLoop=1;jettySize=auto;html=1;exitX=1;exitY=0.5;exitDx=0;exitDy=0;entryX=0;entryY=0.5;entryDx=0;entryDy=0;fontSize=12;startSize=8;endSize=8;" parent="1" source="fC3Y7yyodlsYuvOftsUU-37" target="fC3Y7yyodlsYuvOftsUU-2" edge="1">
          <mxGeometry relative="1" as="geometry" />
        </mxCell>
        <mxCell id="fC3Y7yyodlsYuvOftsUU-37" value="std::stringValue" style="ellipse;whiteSpace=wrap;html=1;aspect=fixed;" parent="1" vertex="1">
          <mxGeometry x="3" y="71" width="92" height="92" as="geometry" />
        </mxCell>
        <mxCell id="fC3Y7yyodlsYuvOftsUU-53" style="edgeStyle=none;curved=1;rounded=0;orthogonalLoop=1;jettySize=auto;html=1;entryX=0;entryY=0.5;entryDx=0;entryDy=0;fontSize=12;startSize=8;endSize=8;" parent="1" source="fC3Y7yyodlsYuvOftsUU-39" target="fC3Y7yyodlsYuvOftsUU-40" edge="1">
          <mxGeometry relative="1" as="geometry" />
        </mxCell>
        <mxCell id="fC3Y7yyodlsYuvOftsUU-39" value="Key" style="ellipse;whiteSpace=wrap;html=1;aspect=fixed;" parent="1" vertex="1">
          <mxGeometry x="-164" y="-94" width="92" height="92" as="geometry" />
        </mxCell>
        <mxCell id="fC3Y7yyodlsYuvOftsUU-54" style="edgeStyle=none;curved=1;rounded=0;orthogonalLoop=1;jettySize=auto;html=1;entryX=0;entryY=0.5;entryDx=0;entryDy=0;fontSize=12;startSize=8;endSize=8;" parent="1" source="fC3Y7yyodlsYuvOftsUU-40" target="fC3Y7yyodlsYuvOftsUU-41" edge="1">
          <mxGeometry relative="1" as="geometry" />
        </mxCell>
        <mxCell id="fC3Y7yyodlsYuvOftsUU-40" value="PostKey" style="ellipse;whiteSpace=wrap;html=1;aspect=fixed;" parent="1" vertex="1">
          <mxGeometry x="111" y="-94" width="92" height="92" as="geometry" />
        </mxCell>
        <mxCell id="fC3Y7yyodlsYuvOftsUU-55" style="edgeStyle=none;curved=1;rounded=0;orthogonalLoop=1;jettySize=auto;html=1;fontSize=12;startSize=8;endSize=8;exitX=1;exitY=1;exitDx=0;exitDy=0;" parent="1" source="N2olu9is8N9awN_sbgdp-1" edge="1">
          <mxGeometry relative="1" as="geometry">
            <mxPoint x="622.2352941176473" y="157.47058823529414" as="targetPoint" />
          </mxGeometry>
        </mxCell>
        <mxCell id="N2olu9is8N9awN_sbgdp-3" style="edgeStyle=orthogonalEdgeStyle;rounded=0;orthogonalLoop=1;jettySize=auto;html=1;exitX=1;exitY=0.5;exitDx=0;exitDy=0;" edge="1" parent="1" source="fC3Y7yyodlsYuvOftsUU-41">
          <mxGeometry relative="1" as="geometry">
            <mxPoint x="508" y="-50" as="targetPoint" />
          </mxGeometry>
        </mxCell>
        <mxCell id="fC3Y7yyodlsYuvOftsUU-41" value="ObjectValue" style="ellipse;whiteSpace=wrap;html=1;aspect=fixed;" parent="1" vertex="1">
          <mxGeometry x="333.5" y="-96" width="92" height="92" as="geometry" />
        </mxCell>
        <mxCell id="fC3Y7yyodlsYuvOftsUU-50" style="edgeStyle=none;curved=1;rounded=0;orthogonalLoop=1;jettySize=auto;html=1;entryX=0;entryY=0.5;entryDx=0;entryDy=0;fontSize=12;startSize=8;endSize=8;exitX=0.926;exitY=0.334;exitDx=0;exitDy=0;exitPerimeter=0;" parent="1" source="fC3Y7yyodlsYuvOftsUU-42" target="fC3Y7yyodlsYuvOftsUU-2" edge="1">
          <mxGeometry relative="1" as="geometry">
            <mxPoint x="255" y="262" as="sourcePoint" />
          </mxGeometry>
        </mxCell>
        <mxCell id="fC3Y7yyodlsYuvOftsUU-42" value="NumericValue" style="ellipse;whiteSpace=wrap;html=1;aspect=fixed;" parent="1" vertex="1">
          <mxGeometry x="-98" y="231" width="92" height="92" as="geometry" />
        </mxCell>
        <mxCell id="fC3Y7yyodlsYuvOftsUU-57" value="{" style="edgeLabel;html=1;align=center;verticalAlign=middle;resizable=0;points=[];fontSize=12;" parent="1" vertex="1" connectable="0">
          <mxGeometry x="-432.54621620058333" y="80.5937009902118" as="geometry" />
        </mxCell>
        <mxCell id="fC3Y7yyodlsYuvOftsUU-58" value="&quot;" style="edgeLabel;html=1;align=center;verticalAlign=middle;resizable=0;points=[];fontSize=12;" parent="1" vertex="1" connectable="0">
          <mxGeometry x="15.003783799416453" y="-62.99629900978809" as="geometry" />
        </mxCell>
        <mxCell id="fC3Y7yyodlsYuvOftsUU-59" value=":" style="edgeLabel;html=1;align=center;verticalAlign=middle;resizable=0;points=[];fontSize=12;" parent="1" vertex="1" connectable="0">
          <mxGeometry x="268.0037837994164" y="-55.99629900978809" as="geometry">
            <mxPoint x="1" y="-8" as="offset" />
          </mxGeometry>
        </mxCell>
        <mxCell id="fC3Y7yyodlsYuvOftsUU-61" value="}" style="text;html=1;align=center;verticalAlign=middle;resizable=0;points=[];autosize=1;strokeColor=none;fillColor=none;fontSize=16;" parent="1" vertex="1">
          <mxGeometry x="557.5" y="45.5" width="23" height="31" as="geometry" />
        </mxCell>
        <mxCell id="fC3Y7yyodlsYuvOftsUU-62" value="Recursively call parse from here" style="text;html=1;align=center;verticalAlign=middle;whiteSpace=wrap;rounded=0;fontSize=16;" parent="1" vertex="1">
          <mxGeometry x="290" y="2" width="149" height="30" as="geometry" />
        </mxCell>
        <mxCell id="fC3Y7yyodlsYuvOftsUU-63" value="Recursively call parse from here" style="text;html=1;align=center;verticalAlign=middle;whiteSpace=wrap;rounded=0;fontSize=16;" parent="1" vertex="1">
          <mxGeometry x="-109" y="426" width="149" height="30" as="geometry" />
        </mxCell>
        <mxCell id="fC3Y7yyodlsYuvOftsUU-66" value="," style="text;html=1;align=center;verticalAlign=middle;resizable=0;points=[];autosize=1;strokeColor=none;fillColor=none;fontSize=16;" parent="1" vertex="1">
          <mxGeometry x="73" y="452" width="22" height="31" as="geometry" />
        </mxCell>
        <mxCell id="fC3Y7yyodlsYuvOftsUU-67" style="edgeStyle=none;curved=1;rounded=0;orthogonalLoop=1;jettySize=auto;html=1;exitX=0;exitY=0;exitDx=0;exitDy=0;entryX=0.709;entryY=0.069;entryDx=0;entryDy=0;entryPerimeter=0;fontSize=12;startSize=8;endSize=8;" parent="1" source="N2olu9is8N9awN_sbgdp-1" target="fC3Y7yyodlsYuvOftsUU-35" edge="1">
          <mxGeometry relative="1" as="geometry">
            <Array as="points">
              <mxPoint x="148" y="-274" />
            </Array>
          </mxGeometry>
        </mxCell>
        <mxCell id="fC3Y7yyodlsYuvOftsUU-68" value="," style="text;html=1;align=center;verticalAlign=middle;resizable=0;points=[];autosize=1;strokeColor=none;fillColor=none;fontSize=16;" parent="1" vertex="1">
          <mxGeometry x="131" y="-215" width="22" height="31" as="geometry" />
        </mxCell>
        <mxCell id="fC3Y7yyodlsYuvOftsUU-70" style="edgeStyle=none;curved=1;rounded=0;orthogonalLoop=1;jettySize=auto;html=1;fontSize=12;startSize=8;endSize=8;" parent="1" source="fC3Y7yyodlsYuvOftsUU-39" target="fC3Y7yyodlsYuvOftsUU-39" edge="1">
          <mxGeometry relative="1" as="geometry">
            <Array as="points">
              <mxPoint x="-94" y="35" />
            </Array>
          </mxGeometry>
        </mxCell>
        <mxCell id="fC3Y7yyodlsYuvOftsUU-71" value="Anything" style="text;html=1;align=center;verticalAlign=middle;resizable=0;points=[];autosize=1;strokeColor=none;fillColor=none;fontSize=16;" parent="1" vertex="1">
          <mxGeometry x="-160.5" y="29.5" width="80" height="31" as="geometry" />
        </mxCell>
        <mxCell id="fC3Y7yyodlsYuvOftsUU-72" value="[" style="text;html=1;align=center;verticalAlign=middle;resizable=0;points=[];autosize=1;strokeColor=none;fillColor=none;fontSize=16;" parent="1" vertex="1">
          <mxGeometry x="-251.5" y="349.5" width="22" height="31" as="geometry" />
        </mxCell>
        <mxCell id="fC3Y7yyodlsYuvOftsUU-73" value="]" style="text;html=1;align=center;verticalAlign=middle;resizable=0;points=[];autosize=1;strokeColor=none;fillColor=none;fontSize=16;" parent="1" vertex="1">
          <mxGeometry x="333.5" y="392.5" width="22" height="31" as="geometry" />
        </mxCell>
        <mxCell id="fC3Y7yyodlsYuvOftsUU-74" value="digit" style="text;html=1;align=center;verticalAlign=middle;resizable=0;points=[];autosize=1;strokeColor=none;fillColor=none;fontSize=16;" parent="1" vertex="1">
          <mxGeometry x="-232" y="223" width="47" height="31" as="geometry" />
        </mxCell>
        <mxCell id="fC3Y7yyodlsYuvOftsUU-75" value="DecimalValue" style="ellipse;whiteSpace=wrap;html=1;aspect=fixed;" parent="1" vertex="1">
          <mxGeometry x="89" y="283" width="92" height="92" as="geometry" />
        </mxCell>
        <mxCell id="fC3Y7yyodlsYuvOftsUU-76" style="edgeStyle=none;curved=1;rounded=0;orthogonalLoop=1;jettySize=auto;html=1;entryX=0.003;entryY=0.41;entryDx=0;entryDy=0;entryPerimeter=0;fontSize=12;startSize=8;endSize=8;" parent="1" source="fC3Y7yyodlsYuvOftsUU-42" target="fC3Y7yyodlsYuvOftsUU-75" edge="1">
          <mxGeometry relative="1" as="geometry" />
        </mxCell>
        <mxCell id="fC3Y7yyodlsYuvOftsUU-77" value="." style="edgeLabel;html=1;align=center;verticalAlign=middle;resizable=0;points=[];fontSize=12;" parent="fC3Y7yyodlsYuvOftsUU-76" vertex="1" connectable="0">
          <mxGeometry x="0.0316" y="-4" relative="1" as="geometry">
            <mxPoint x="-3" y="7" as="offset" />
          </mxGeometry>
        </mxCell>
        <mxCell id="fC3Y7yyodlsYuvOftsUU-78" value="any non-digit, don&#39;t progress index" style="text;html=1;align=center;verticalAlign=middle;resizable=0;points=[];autosize=1;strokeColor=none;fillColor=none;fontSize=16;" parent="1" vertex="1">
          <mxGeometry x="177" y="234" width="262" height="31" as="geometry" />
        </mxCell>
        <mxCell id="fC3Y7yyodlsYuvOftsUU-79" style="edgeStyle=none;curved=1;rounded=0;orthogonalLoop=1;jettySize=auto;html=1;entryX=0.031;entryY=0.668;entryDx=0;entryDy=0;entryPerimeter=0;fontSize=12;startSize=8;endSize=8;" parent="1" source="fC3Y7yyodlsYuvOftsUU-75" target="fC3Y7yyodlsYuvOftsUU-2" edge="1">
          <mxGeometry relative="1" as="geometry" />
        </mxCell>
        <mxCell id="fC3Y7yyodlsYuvOftsUU-81" style="edgeStyle=none;curved=1;rounded=0;orthogonalLoop=1;jettySize=auto;html=1;fontSize=12;startSize=8;endSize=8;" parent="1" source="fC3Y7yyodlsYuvOftsUU-42" target="fC3Y7yyodlsYuvOftsUU-42" edge="1">
          <mxGeometry relative="1" as="geometry">
            <Array as="points">
              <mxPoint x="-48" y="348" />
            </Array>
          </mxGeometry>
        </mxCell>
        <mxCell id="fC3Y7yyodlsYuvOftsUU-82" value="digit" style="text;html=1;align=center;verticalAlign=middle;resizable=0;points=[];autosize=1;strokeColor=none;fillColor=none;fontSize=16;" parent="1" vertex="1">
          <mxGeometry x="-76.5" y="340.5" width="47" height="31" as="geometry" />
        </mxCell>
        <mxCell id="fC3Y7yyodlsYuvOftsUU-83" style="edgeStyle=none;curved=1;rounded=0;orthogonalLoop=1;jettySize=auto;html=1;fontSize=12;startSize=8;endSize=8;" parent="1" source="fC3Y7yyodlsYuvOftsUU-75" target="fC3Y7yyodlsYuvOftsUU-75" edge="1">
          <mxGeometry relative="1" as="geometry">
            <Array as="points">
              <mxPoint x="147" y="398" />
            </Array>
          </mxGeometry>
        </mxCell>
        <mxCell id="fC3Y7yyodlsYuvOftsUU-84" value="digit" style="text;html=1;align=center;verticalAlign=middle;resizable=0;points=[];autosize=1;strokeColor=none;fillColor=none;fontSize=16;" parent="1" vertex="1">
          <mxGeometry x="110.5" y="390.5" width="47" height="31" as="geometry" />
        </mxCell>
        <mxCell id="fC3Y7yyodlsYuvOftsUU-85" value="&quot;" style="text;html=1;align=center;verticalAlign=middle;resizable=0;points=[];autosize=1;strokeColor=none;fillColor=none;fontSize=16;" parent="1" vertex="1">
          <mxGeometry x="-236" y="113" width="24" height="31" as="geometry" />
        </mxCell>
        <mxCell id="fC3Y7yyodlsYuvOftsUU-86" value="&quot;" style="text;html=1;align=center;verticalAlign=middle;resizable=0;points=[];autosize=1;strokeColor=none;fillColor=none;fontSize=16;" parent="1" vertex="1">
          <mxGeometry x="278" y="105" width="24" height="31" as="geometry" />
        </mxCell>
        <mxCell id="fC3Y7yyodlsYuvOftsUU-87" style="edgeStyle=none;curved=1;rounded=0;orthogonalLoop=1;jettySize=auto;html=1;fontSize=12;startSize=8;endSize=8;" parent="1" source="fC3Y7yyodlsYuvOftsUU-37" target="fC3Y7yyodlsYuvOftsUU-37" edge="1">
          <mxGeometry relative="1" as="geometry">
            <Array as="points">
              <mxPoint x="36" y="187" />
            </Array>
          </mxGeometry>
        </mxCell>
        <mxCell id="fC3Y7yyodlsYuvOftsUU-88" value="anything" style="text;html=1;align=center;verticalAlign=middle;resizable=0;points=[];autosize=1;strokeColor=none;fillColor=none;fontSize=16;" parent="1" vertex="1">
          <mxGeometry x="7.5" y="183.5" width="79" height="31" as="geometry" />
        </mxCell>
        <mxCell id="fC3Y7yyodlsYuvOftsUU-90" value="" style="endArrow=classic;html=1;rounded=0;fontSize=12;startSize=8;endSize=8;curved=1;entryX=0.011;entryY=0.535;entryDx=0;entryDy=0;entryPerimeter=0;" parent="1" target="fC3Y7yyodlsYuvOftsUU-6" edge="1">
          <mxGeometry width="50" height="50" relative="1" as="geometry">
            <mxPoint x="-620" y="196" as="sourcePoint" />
            <mxPoint x="-562" y="195" as="targetPoint" />
          </mxGeometry>
        </mxCell>
        <mxCell id="N2olu9is8N9awN_sbgdp-1" value="PostObjectValue" style="ellipse;whiteSpace=wrap;html=1;aspect=fixed;" vertex="1" parent="1">
          <mxGeometry x="509" y="-94" width="92" height="92" as="geometry" />
        </mxCell>
        <mxCell id="N2olu9is8N9awN_sbgdp-4" value="PostList" style="ellipse;whiteSpace=wrap;html=1;aspect=fixed;" vertex="1" parent="1">
          <mxGeometry x="153" y="471" width="92" height="92" as="geometry" />
        </mxCell>
        <mxCell id="N2olu9is8N9awN_sbgdp-5" style="edgeStyle=orthogonalEdgeStyle;rounded=0;orthogonalLoop=1;jettySize=auto;html=1;entryX=1;entryY=0;entryDx=0;entryDy=0;exitX=0;exitY=0;exitDx=0;exitDy=0;" edge="1" parent="1" source="N2olu9is8N9awN_sbgdp-4" target="fC3Y7yyodlsYuvOftsUU-36">
          <mxGeometry relative="1" as="geometry" />
        </mxCell>
      </root>
    </mxGraphModel>
  </diagram>
</mxfile>
